<?xml version="1.0" encoding="utf-8"?>
<!-- Generator: Adobe Illustrator 15.1.0, SVG Export Plug-In  -->
<!DOCTYPE svg PUBLIC "-//W3C//DTD SVG 1.1//EN" "http://www.w3.org/Graphics/SVG/1.1/DTD/svg11.dtd" [
	<!ENTITY ns_flows "http://ns.adobe.com/Flows/1.0/">
]>
<svg version="1.1"
	 xmlns="http://www.w3.org/2000/svg" xmlns:xlink="http://www.w3.org/1999/xlink" xmlns:a="http://ns.adobe.com/AdobeSVGViewerExtensions/3.0/"
	 x="200px" y="200px" width="610px" viewBox="-1.029 -0.075 255 22"
	 overflow="visible" enable-background="new -1.029 -0.075 255 22" xml:space="preserve">
<defs>
</defs>
<path fill="#FFFFFF" d="M242.947,6.827h-2.7V21.41h2.757v-7.929c0-2.85,0.756-3.491,1.162-3.895
	c1.163-1.164,2.677-1.077,2.677-1.077c2.323,0,3.34,1.309,3.34,3.721v9.18h2.759V11.328c0-4.674-4.501-4.936-5.52-4.936
	c-1.456,0-3.486,0.754-4.418,2.583h-0.057V6.827z M232.589,14.325c0,0.35-0.026,2.063-0.549,3.43
	c-0.585,1.511-2.125,2.092-3.259,2.092c-2.646,0-3.226-1.861-3.226-4.388V6.827h-2.758v9.764c0,2.935,1.741,5.259,4.791,5.259
	c2.036,0,3.895-0.758,5-2.584h0.06v2.145h2.698V6.827h-2.758V14.325z M212.92,12.409c-3.462,0-7.091,1.187-7.091,5.285
	c0,2.847,2.556,4.155,5.086,4.155c2.005,0,3.631-0.784,4.534-2.613h0.057c0.03,0.666,0.088,1.305,0.147,1.974
	c0.027,0.349,0.522,0.2,0.781,0.2h1.857c-0.086-1.216-0.115-2.435-0.115-3.077v-6.974c0-4.067-2.96-4.967-5.956-4.967
	c-2.876,0-5.374,1.13-5.52,4.328h2.903c0.029-1.515,1.338-2.329,2.733-2.329c2.937,0,3.081,1.486,3.081,4.018H212.92z
	 M215.419,14.322c0.061,2.703-0.55,5.524-3.809,5.524c-1.625,0-2.877-0.902-2.877-2.706c0-2.122,2.239-2.732,3.922-2.818H215.419z
	 M198.442,14.176c0-3.078,0.61-4.939,4.096-5.055c0.378,0,0.814,0,1.191,0.142V6.654c-0.319,0-0.61-0.029-0.959-0.029
	c-2.005,0-3.863,1.015-4.27,3.018h-0.059V6.827h-2.757V21.41h2.757V14.176z M180.579,19.236l-0.057-0.146h0.057
	c0.989,2.032,2.906,2.759,5.031,2.759c4.329,0,6.067-3.979,6.067-7.729c0-3.956-2.029-7.729-6.563-7.729
	c-1.859,0-3.693,0.666-4.535,2.406h-0.057V0.437h-2.758v18.654c0,0.581-0.086,1.45-0.145,2.319h2.842L180.579,19.236z
	 M188.778,14.121c0,2.73-1.021,5.726-4.13,5.726c-3.343,0-4.126-2.995-4.126-5.726c0-2.645,0.986-5.729,4.126-5.729
	C187.96,8.392,188.778,11.39,188.778,14.121 M170.145,14.325c0,0.35-0.028,2.063-0.553,3.43c-0.578,1.511-2.122,2.092-3.255,2.092
	c-2.646,0-3.227-1.861-3.227-4.388V6.827h-2.757v9.764c0,2.935,1.738,5.259,4.794,5.259c2.033,0,3.895-0.758,4.997-2.584h0.061
	v2.145h2.696V6.827h-2.757V14.325z M150.476,12.409c-3.461,0-7.091,1.187-7.091,5.285c0,2.847,2.555,4.155,5.084,4.155
	c2.007,0,3.634-0.784,4.536-2.613h0.055c0.03,0.666,0.09,1.305,0.147,1.974c0.029,0.349,0.523,0.2,0.786,0.2h1.856
	c-0.088-1.216-0.118-2.435-0.118-3.077v-6.974c0-4.067-2.959-4.967-5.957-4.967c-2.877,0-5.373,1.13-5.519,4.328h2.905
	c0.03-1.515,1.335-2.329,2.729-2.329c2.938,0,3.082,1.486,3.082,4.018H150.476z M152.973,14.322c0.06,2.703-0.55,5.524-3.808,5.524
	c-1.627,0-2.874-0.902-2.874-2.706c0-2.122,2.234-2.732,3.923-2.818H152.973z M135.997,14.176c0-3.078,0.608-4.939,4.097-5.055
	c0.376,0,0.816,0,1.191,0.142V6.654c-0.321,0-0.611-0.029-0.96-0.029c-2.006,0-3.864,1.015-4.271,3.018h-0.058V6.827h-2.757V21.41
	h2.757V14.176z M126.821,21.41V8.741h3.369V6.827h-3.369V4.501c-0.088-1.6,0.812-2.006,2.383-2.006c0.462,0,0.928,0.059,1.395,0.087
	v-2.29C129.93,0.175,129.288,0,128.622,0c-2.063,0-4.474,0.842-4.558,4.037v2.79h-2.849v1.914h2.849V21.41H126.821z M108.827,12.726
	c0-2.382,1.365-4.334,3.664-4.334c2.672,0,3.778,1.892,3.72,4.334H108.827z M119.113,14.642v-1.363c0-4.042-2.06-6.799-6.418-6.886
	c-4.623,0-6.77,3.572-6.77,7.842c0,4.302,1.857,7.615,6.536,7.615c3.488,0,6.041-1.655,6.477-4.97h-2.901
	c-0.32,2.126-1.396,2.967-3.546,2.967c-2.822,0-3.867-2.647-3.664-5.205H119.113z M92.044,6.827h-2.701V21.41h2.759v-7.929
	c0-2.85,0.756-3.491,1.162-3.895c1.163-1.164,2.676-1.077,2.676-1.077c2.325,0,3.344,1.309,3.344,3.721v9.18h2.756V11.328
	c0-4.674-4.502-4.936-5.517-4.936c-1.458,0-3.49,0.754-4.421,2.583h-0.058V6.827z M81.413,3.425h3.28V0.437h-3.28V3.425z
	 M84.432,6.827h-2.755V21.41h2.755V6.827z M67.354,12.726c0-2.382,1.368-4.334,3.664-4.334c2.677,0,3.779,1.892,3.721,4.334H67.354z
	 M77.642,14.642v-1.363c0-4.042-2.059-6.799-6.419-6.886c-4.621,0-6.77,3.572-6.77,7.842c0,4.302,1.858,7.615,6.535,7.615
	c3.491,0,6.044-1.655,6.479-4.97h-2.902c-0.318,2.126-1.395,2.967-3.547,2.967c-2.82,0-3.866-2.647-3.664-5.205H77.642z
	 M60.424,0.437h-2.757V21.41h2.757V0.437z M45.29,21.41v-7.873h0.06l5.78,7.873h3.574l-6.538-8.394l6.161-6.189h-3.574l-5.463,5.957
	V0.437h-2.759V21.41H45.29z M28.345,12.726c0-2.382,1.368-4.334,3.664-4.334c2.675,0,3.778,1.892,3.723,4.334H28.345z
	 M38.631,14.642v-1.363c0-4.042-2.059-6.799-6.419-6.886c-4.62,0-6.77,3.572-6.77,7.842c0,4.302,1.859,7.615,6.536,7.615
	c3.49,0,6.044-1.655,6.479-4.97h-2.901c-0.32,2.126-1.395,2.967-3.547,2.967c-2.821,0-3.868-2.647-3.664-5.205H38.631z
	 M18.434,3.425h3.279V0.437h-3.279V3.425z M21.454,6.827h-2.756V21.41h2.756V6.827z M11.132,8.799h-0.059
	c-0.845-1.74-2.677-2.406-4.535-2.406C2.004,6.393,0,10.165,0,14.121c0,3.749,1.715,7.729,6.042,7.729
	c2.122,0,4.043-0.727,5.031-2.759h0.059v0.146l0.085,2.174h2.815c-0.058-0.84-0.145-1.708-0.145-2.581V0.437h-2.756V8.799z
	 M2.901,14.091c0-2.731,0.815-5.786,4.13-5.786c3.141,0,4.13,3.142,4.13,5.786c0,2.731-0.785,5.843-4.13,5.843
	C3.919,19.934,2.901,16.822,2.901,14.091"/>
</svg>
