<?xml version="1.0" encoding="iso-8859-1"?>
<!-- Generator: Adobe Illustrator 19.1.0, SVG Export Plug-In . SVG Version: 6.00 Build 0)  -->
<!DOCTYPE svg PUBLIC "-//W3C//DTD SVG 1.1//EN" "http://www.w3.org/Graphics/SVG/1.1/DTD/svg11.dtd">
<svg version="1.1" id="Layer_1" xmlns="http://www.w3.org/2000/svg" xmlns:xlink="http://www.w3.org/1999/xlink" x="0px" y="0px"
	 viewBox="-293 287.28 255 22" style="enable-background:new -293 287.28 255 22;" xml:space="preserve">
<path style="fill:#F098BC;" d="M-50.053,294.107h-2.7v14.583h2.757v-7.929c0-2.85,0.756-3.491,1.162-3.895
	c1.163-1.164,2.677-1.077,2.677-1.077c2.323,0,3.34,1.309,3.34,3.721v9.18h2.759v-10.082c0-4.674-4.501-4.936-5.52-4.936
	c-1.456,0-3.486,0.754-4.418,2.583h-0.057V294.107z M-60.411,301.605c0,0.35-0.026,2.063-0.549,3.43
	c-0.585,1.511-2.125,2.092-3.259,2.092c-2.646,0-3.226-1.861-3.226-4.388v-8.632h-2.758v9.764c0,2.935,1.741,5.259,4.791,5.259
	c2.036,0,3.895-0.758,5-2.584h0.06v2.145h2.698v-14.584h-2.758L-60.411,301.605L-60.411,301.605z M-80.08,299.689
	c-3.462,0-7.091,1.187-7.091,5.285c0,2.847,2.556,4.155,5.086,4.155c2.005,0,3.631-0.784,4.534-2.613h0.057
	c0.03,0.666,0.088,1.305,0.147,1.974c0.027,0.349,0.522,0.2,0.781,0.2h1.857c-0.086-1.216-0.115-2.435-0.115-3.077v-6.974
	c0-4.067-2.96-4.967-5.956-4.967c-2.876,0-5.374,1.13-5.52,4.328h2.903c0.029-1.515,1.338-2.329,2.733-2.329
	c2.937,0,3.081,1.486,3.081,4.018H-80.08z M-77.581,301.602c0.061,2.703-0.55,5.524-3.809,5.524c-1.625,0-2.877-0.902-2.877-2.706
	c0-2.122,2.239-2.732,3.922-2.818C-80.345,301.602-77.581,301.602-77.581,301.602z M-94.558,301.456c0-3.078,0.61-4.939,4.096-5.055
	c0.378,0,0.814,0,1.191,0.142v-2.609c-0.319,0-0.61-0.029-0.959-0.029c-2.005,0-3.863,1.015-4.27,3.018h-0.059v-2.816h-2.757v14.583
	h2.757v-7.234H-94.558z M-112.421,306.516l-0.057-0.146h0.057c0.989,2.032,2.906,2.759,5.031,2.759c4.329,0,6.067-3.979,6.067-7.729
	c0-3.956-2.029-7.729-6.563-7.729c-1.859,0-3.693,0.666-4.535,2.406h-0.057v-8.36h-2.758v18.654c0,0.581-0.086,1.45-0.145,2.319
	h2.842L-112.421,306.516z M-104.222,301.401c0,2.73-1.021,5.726-4.13,5.726c-3.343,0-4.126-2.995-4.126-5.726
	c0-2.645,0.986-5.729,4.126-5.729C-105.04,295.672-104.222,298.67-104.222,301.401 M-122.855,301.605c0,0.35-0.028,2.063-0.553,3.43
	c-0.578,1.511-2.122,2.092-3.255,2.092c-2.646,0-3.227-1.861-3.227-4.388v-8.632h-2.757v9.764c0,2.935,1.738,5.259,4.794,5.259
	c2.033,0,3.895-0.758,4.997-2.584h0.061v2.145h2.696v-14.584h-2.757v7.498H-122.855z M-142.524,299.689
	c-3.461,0-7.091,1.187-7.091,5.285c0,2.847,2.555,4.155,5.084,4.155c2.007,0,3.634-0.784,4.536-2.613h0.055
	c0.03,0.666,0.09,1.305,0.147,1.974c0.029,0.349,0.523,0.2,0.786,0.2h1.856c-0.088-1.216-0.118-2.435-0.118-3.077v-6.974
	c0-4.067-2.959-4.967-5.957-4.967c-2.877,0-5.373,1.13-5.519,4.328h2.905c0.03-1.515,1.335-2.329,2.729-2.329
	c2.938,0,3.082,1.486,3.082,4.018H-142.524z M-140.027,301.602c0.06,2.703-0.55,5.524-3.808,5.524c-1.627,0-2.874-0.902-2.874-2.706
	c0-2.122,2.234-2.732,3.923-2.818C-142.786,301.602-140.027,301.602-140.027,301.602z M-157.003,301.456
	c0-3.078,0.608-4.939,4.097-5.055c0.376,0,0.816,0,1.191,0.142v-2.609c-0.321,0-0.611-0.029-0.96-0.029
	c-2.006,0-3.864,1.015-4.271,3.018h-0.058v-2.816h-2.757v14.583h2.757v-7.234H-157.003z M-166.179,308.69v-12.669h3.369v-1.914
	h-3.369v-2.326c-0.088-1.6,0.812-2.006,2.383-2.006c0.462,0,0.928,0.059,1.395,0.087v-2.29c-0.669-0.117-1.311-0.292-1.977-0.292
	c-2.063,0-4.474,0.842-4.558,4.037v2.79h-2.849v1.914h2.849v12.669H-166.179z M-184.173,300.006c0-2.382,1.365-4.334,3.664-4.334
	c2.672,0,3.778,1.892,3.72,4.334H-184.173z M-173.887,301.922v-1.363c0-4.042-2.06-6.799-6.418-6.886
	c-4.623,0-6.77,3.572-6.77,7.842c0,4.302,1.857,7.615,6.536,7.615c3.488,0,6.041-1.655,6.477-4.97h-2.901
	c-0.32,2.126-1.396,2.967-3.546,2.967c-2.822,0-3.867-2.647-3.664-5.205H-173.887z M-200.956,294.107h-2.701v14.583h2.759v-7.929
	c0-2.85,0.756-3.491,1.162-3.895c1.163-1.164,2.676-1.077,2.676-1.077c2.325,0,3.344,1.309,3.344,3.721v9.18h2.756v-10.082
	c0-4.674-4.502-4.936-5.517-4.936c-1.458,0-3.49,0.754-4.421,2.583h-0.058V294.107L-200.956,294.107z M-211.587,290.705h3.28v-2.988
	h-3.28V290.705z M-208.568,294.107h-2.755v14.583h2.755V294.107z M-225.646,300.006c0-2.382,1.368-4.334,3.664-4.334
	c2.677,0,3.779,1.892,3.721,4.334H-225.646z M-215.358,301.922v-1.363c0-4.042-2.059-6.799-6.419-6.886
	c-4.621,0-6.77,3.572-6.77,7.842c0,4.302,1.858,7.615,6.535,7.615c3.491,0,6.044-1.655,6.479-4.97h-2.902
	c-0.318,2.126-1.395,2.967-3.547,2.967c-2.82,0-3.866-2.647-3.664-5.205H-215.358z M-232.576,287.717h-2.757v20.973h2.757V287.717z
	 M-247.71,308.69v-7.873h0.06l5.78,7.873h3.574l-6.538-8.394l6.161-6.189h-3.574l-5.463,5.957v-12.347h-2.759v20.973H-247.71z
	 M-264.655,300.006c0-2.382,1.368-4.334,3.664-4.334c2.675,0,3.778,1.892,3.723,4.334H-264.655z M-254.369,301.922v-1.363
	c0-4.042-2.059-6.799-6.419-6.886c-4.62,0-6.77,3.572-6.77,7.842c0,4.302,1.859,7.615,6.536,7.615c3.49,0,6.044-1.655,6.479-4.97
	h-2.901c-0.32,2.126-1.395,2.967-3.547,2.967c-2.821,0-3.868-2.647-3.664-5.205H-254.369z M-274.566,290.705h3.279v-2.988h-3.279
	V290.705z M-271.546,294.107h-2.756v14.583h2.756V294.107z M-281.868,296.079h-0.059c-0.845-1.74-2.677-2.406-4.535-2.406
	c-4.534,0-6.538,3.772-6.538,7.728c0,3.749,1.715,7.729,6.042,7.729c2.122,0,4.043-0.727,5.031-2.759h0.059v0.146l0.085,2.174h2.815
	c-0.058-0.84-0.145-1.708-0.145-2.581v-18.393h-2.756L-281.868,296.079L-281.868,296.079z M-290.099,301.371
	c0-2.731,0.815-5.786,4.13-5.786c3.141,0,4.13,3.142,4.13,5.786c0,2.731-0.785,5.843-4.13,5.843
	C-289.081,307.214-290.099,304.102-290.099,301.371"/>
</svg>
